<svg width="8" height="11" viewBox="0 0 8 11" fill="none" xmlns="http://www.w3.org/2000/svg">
<path d="M0.596194 1.61091C0.400932 1.41565 0.400932 1.09907 0.596194 0.903806L1.3033 0.196699C1.49856 0.00143727 1.81515 0.0014371 2.01041 0.196699L6.96015 5.14645C7.15542 5.34171 7.15542 5.65829 6.96015 5.85355L6.25305 6.56066C6.05779 6.75592 5.7412 6.75592 5.54594 6.56066L0.596194 1.61091Z" fill="#1873EB"/>
<path d="M5.54594 4.43934C5.7412 4.24408 6.05779 4.24408 6.25305 4.43934L6.96015 5.14645C7.15542 5.34171 7.15542 5.65829 6.96015 5.85355L2.01041 10.8033C1.81515 10.9986 1.49856 10.9986 1.3033 10.8033L0.596194 10.0962C0.400931 9.90093 0.400932 9.58435 0.596194 9.38909L5.54594 4.43934Z" fill="#1873EB"/>
</svg>
