<svg width="10" height="11" viewBox="0 0 10 11" fill="none" xmlns="http://www.w3.org/2000/svg">
<path d="M9.84015 5.88807L6.2288 9.49951C6.12572 9.60259 5.98832 9.65918 5.84182 9.65918C5.69515 9.65918 5.55784 9.60251 5.45475 9.49951L5.12686 9.17154C5.02386 9.06862 4.96711 8.93114 4.96711 8.78455C4.96711 8.63805 5.02386 8.49594 5.12686 8.39301L7.23367 6.28157L0.540239 6.28157C0.238453 6.28157 0 6.04531 0 5.74344L0 5.27979C0 4.97792 0.238453 4.71784 0.540239 4.71784L7.25758 4.71784L5.12694 2.59461C5.02394 2.49152 4.96719 2.35778 4.96719 2.21119C4.96719 2.06477 5.02394 1.92908 5.12694 1.82608L5.45483 1.49917C5.55792 1.39608 5.69523 1.3399 5.8419 1.3399C5.9884 1.3399 6.1258 1.39681 6.22889 1.4999L9.84023 5.11125C9.94357 5.21466 10.0004 5.35271 9.99999 5.49946C10.0003 5.64669 9.94357 5.78482 9.84015 5.88807Z" fill="#4F4F4F"/>
</svg>
